HIERARCHY
ROOT Hips
{
	OFFSET -0.001795 -0.223333 0.028219
	CHANNELS 6 Xposition Yposition Zposition Zrotation Yrotation Xrotation 
	JOINT LeftUpLeg
	{
		OFFSET 0.069520 -0.091406 -0.006815
		CHANNELS 3 Zrotation Yrotation Xrotation
		JOINT LeftLeg
		{
			OFFSET 0.034277 -0.375199 -0.004496
			CHANNELS 3 Zrotation Yrotation Xrotation
			JOINT LeftFoot
			{
				OFFSET -0.013596 -0.397961 -0.043693
				CHANNELS 3 Zrotation Yrotation Xrotation
				JOINT LeftToe
				{
					OFFSET 0.026358 -0.055791 0.119288
					CHANNELS 3 Zrotation Yrotation Xrotation
					End Site
					{
						OFFSET 0.000000 0.000000 0.000000
					}
				}
			}
		}
	}
	JOINT RightUpLeg
	{
		OFFSET -0.067670 -0.090522 -0.004320
		CHANNELS 3 Zrotation Yrotation Xrotation
		JOINT RightLeg
		{
			OFFSET -0.038290 -0.382569 -0.008850
			CHANNELS 3 Zrotation Yrotation Xrotation
			JOINT RightFoot
			{
				OFFSET 0.015774 -0.398415 -0.042312
				CHANNELS 3 Zrotation Yrotation Xrotation
				JOINT RightToe
				{
					OFFSET -0.025372 -0.048144 0.123348
					CHANNELS 3 Zrotation Yrotation Xrotation
					End Site
					{
						OFFSET 0.000000 0.000000 0.000000
					}
				}
			}
		}
	}
	JOINT Spine
	{
		OFFSET -0.002533 0.108963 -0.026696
		CHANNELS 3 Zrotation Yrotation Xrotation
		JOINT Spine1
		{
			OFFSET 0.005487 0.135180 0.001092
			CHANNELS 3 Zrotation Yrotation Xrotation
			JOINT Spine2
			{
				OFFSET 0.001457 0.052922 0.025425
				CHANNELS 3 Zrotation Yrotation Xrotation
				JOINT Neck
				{
					OFFSET -0.002778 0.213870 -0.042857
					CHANNELS 3 Zrotation Yrotation Xrotation
					JOINT Head
					{
						OFFSET 0.005152 0.064970 0.051349
						CHANNELS 3 Zrotation Yrotation Xrotation
						End Site
						{
							OFFSET 0.000000 0.000000 0.000000
						}
					}
				}
				JOINT LeftShoulder
				{
					OFFSET 0.078845 0.121749 -0.034090
					CHANNELS 3 Zrotation Yrotation Xrotation
					JOINT LeftArm
					{
						OFFSET 0.090977 0.030469 -0.008868
						CHANNELS 3 Zrotation Yrotation Xrotation
						JOINT LeftForeArm
						{
							OFFSET 0.259612 -0.012772 -0.027456
							CHANNELS 3 Zrotation Yrotation Xrotation
							JOINT LeftHand
							{
								OFFSET 0.249234 0.008986 -0.001171
								CHANNELS 3 Zrotation Yrotation Xrotation
								End Site
								{
									OFFSET 0.000000 0.000000 0.000000
								}
							}
						}
					}
				}
				JOINT RightShoulder
				{
					OFFSET -0.081759 0.118833 -0.038615
					CHANNELS 3 Zrotation Yrotation Xrotation
					JOINT RightArm
					{
						OFFSET -0.096012 0.032551 -0.009143
						CHANNELS 3 Zrotation Yrotation Xrotation
						JOINT RightForeArm
						{
							OFFSET -0.253742 -0.013329 -0.021401
							CHANNELS 3 Zrotation Yrotation Xrotation
							JOINT RightHand
							{
								OFFSET -0.255298 0.007772 -0.005559
								CHANNELS 3 Zrotation Yrotation Xrotation
								End Site
								{
									OFFSET 0.000000 0.000000 0.000000
								}
							}
						}
					}
				}
			}
		}
	}
}
MOTION
Frames: 11
Frame Time: 0.050000
0.011497 0.956910 -0.064634 1.974345 -5.724878 19.717684 3.385744 -1.074356 -16.730156 2.014141 0.400161 -10.997171 5.531832 14.437557 29.272411 0.000000 0.000000 0.000000 -3.237741 1.973931 -21.561017 -10.134560 -0.160035 -8.693139 4.145547 -4.339665 27.362915 0.000000 0.000000 0.000000 4.550542 -0.954667 7.842473 4.408550 -1.754316 -2.957058 -11.347383 0.095976 0.159679 17.193300 -9.291933 -13.495484 0.000000 0.000000 0.000000 15.214400 -37.141039 9.737084 9.925044 -41.116234 -5.153342 21.290338 -21.753672 -3.072943 0.000000 0.000000 0.000000 -2.656355 24.052354 8.511235 20.598953 51.495670 5.488436 -28.204362 36.486777 -7.388758 0.000000 0.000000 0.000000 
0.012020 0.956667 -0.064751 1.986891 -5.436444 19.846888 3.265940 -1.101986 -16.901859 2.974184 0.318776 -10.023814 3.407012 11.651056 26.740467 0.000000 0.000000 0.000000 -3.325766 1.973974 -21.777664 -10.487011 -0.083277 -8.143273 4.666604 -3.250409 26.639407 0.000000 0.000000 0.000000 4.897803 -1.035854 8.193388 4.159289 -1.636116 -3.230403 -11.576922 0.352304 0.627567 16.904803 -9.213486 -13.189417 0.000000 0.000000 0.000000 15.223549 -37.698932 9.859294 10.115362 -41.847985 -5.389076 22.185109 -21.588762 -3.228759 0.000000 0.000000 0.000000 -3.941406 24.115021 8.371207 17.462977 52.737490 4.355398 -28.665363 33.722940 -6.844083 0.000000 0.000000 0.000000 
0.012815 0.956546 -0.064886 2.069282 -5.211411 20.181693 2.966534 -1.162546 -17.383564 4.131164 0.194943 -8.729599 1.408379 8.695764 23.941995 0.000000 0.000000 0.000000 -3.522669 1.959471 -21.937137 -10.832338 -0.060828 -8.034297 5.209978 -2.110155 25.947271 0.000000 0.000000 0.000000 4.905381 -1.068318 8.495194 4.300171 -1.687068 -3.307956 -11.880742 0.399330 0.732337 16.957231 -9.192100 -13.329845 0.000000 0.000000 0.000000 15.285630 -37.851137 9.892907 10.204596 -42.613198 -5.577602 22.913634 -21.559769 -3.363550 0.000000 0.000000 0.000000 -4.883887 24.373118 8.344449 14.262294 53.890629 3.113303 -28.367644 31.317033 -6.179517 0.000000 0.000000 0.000000 
0.013709 0.956378 -0.065173 2.293379 -4.838155 20.347298 2.513665 -1.232769 -17.622712 4.941787 0.089895 -7.745941 0.136986 6.539996 21.456764 0.000000 0.000000 0.000000 -3.865821 1.907817 -21.946332 -11.190193 -0.047178 -8.008376 5.661168 -1.187713 25.618233 0.000000 0.000000 0.000000 5.216105 -1.116831 8.426138 3.942113 -1.556899 -2.980076 -11.939273 0.155433 1.005253 16.490818 -8.961358 -13.179427 0.000000 0.000000 0.000000 14.813565 -38.043643 10.064252 10.654228 -43.187978 -5.815762 23.387267 -20.662490 -3.293907 0.000000 0.000000 0.000000 -5.648304 24.400078 8.237694 12.346522 54.809191 2.313075 -28.447685 29.564280 -5.802569 0.000000 0.000000 0.000000 
0.014525 0.956045 -0.065491 2.555680 -4.581854 20.594549 2.197768 -1.303639 -18.155549 5.090232 0.044979 -7.258274 -0.219216 5.971008 20.900506 0.000000 0.000000 0.000000 -4.279307 1.865271 -22.109599 -11.309624 -0.053393 -8.070489 5.799717 -0.864572 25.551629 0.000000 0.000000 0.000000 5.081361 -1.118138 8.607027 3.885988 -1.522658 -3.149228 -12.126435 0.104834 1.310651 16.349655 -8.797664 -13.486188 0.000000 0.000000 0.000000 14.948909 -37.863699 9.981037 10.751631 -43.854227 -5.985068 23.759388 -19.730069 -3.201364 0.000000 0.000000 0.000000 -6.248939 24.008387 8.029816 11.304312 55.627473 1.903485 -29.070197 28.949243 -5.799048 0.000000 0.000000 0.000000 
0.015048 0.955750 -0.065740 2.734539 -4.389359 20.669148 1.911124 -1.355626 -18.420247 5.211578 -0.007829 -6.681117 -0.327385 5.618368 19.904181 0.000000 0.000000 0.000000 -4.512996 1.812546 -21.862523 -11.163734 -0.129281 -8.611007 5.447046 -1.381937 25.639683 0.000000 0.000000 0.000000 5.114303 -1.108718 8.379503 3.699781 -1.444626 -3.152514 -12.340044 0.000283 1.654650 16.332539 -8.659093 -14.058580 0.000000 0.000000 0.000000 14.353068 -37.732260 10.090929 10.915948 -44.558387 -6.175427 24.156050 -18.618693 -3.070984 0.000000 0.000000 0.000000 -6.088622 23.659695 7.934871 11.112396 56.081563 1.826516 -29.345038 28.949482 -5.860522 0.000000 0.000000 0.000000 
0.015323 0.955487 -0.065823 2.768117 -4.197974 20.725808 1.867354 -1.374651 -18.568401 5.346586 -0.058569 -6.144165 -0.616121 4.950422 18.795790 0.000000 0.000000 0.000000 -4.632248 1.783304 -21.738754 -11.060966 -0.179185 -8.968606 5.376996 -1.555037 25.942419 0.000000 0.000000 0.000000 5.159679 -1.110368 8.277505 3.583304 -1.384217 -3.395784 -12.621168 -0.062667 1.990821 16.243460 -8.469264 -14.646872 0.000000 0.000000 0.000000 13.615590 -37.399181 10.186619 10.512649 -44.964761 -6.130372 24.681690 -18.505107 -3.134068 0.000000 0.000000 0.000000 -6.223985 23.273966 7.785528 11.737215 56.277413 2.135235 -30.043665 29.558527 -6.173517 0.000000 0.000000 0.000000 
0.015419 0.954889 -0.065735 2.986197 -3.806122 20.865565 1.696717 -1.424126 -18.870825 5.448626 -0.115598 -5.502439 -1.042138 4.042502 17.525476 0.000000 0.000000 0.000000 -4.907907 1.730105 -21.632833 -10.801243 -0.169368 -8.851509 4.669066 -2.107508 24.816109 0.000000 0.000000 0.000000 5.139746 -1.080524 7.882331 3.349347 -1.270519 -3.725350 -12.885758 -0.134174 2.445184 16.517163 -8.518145 -15.179894 0.000000 0.000000 0.000000 13.037541 -37.062324 10.225002 10.100223 -45.352295 -6.088715 25.168013 -18.530873 -3.222070 0.000000 0.000000 0.000000 -6.234005 22.637172 7.568593 12.589780 56.071773 2.527238 -30.554421 30.783201 -6.595557 0.000000 0.000000 0.000000 
0.015464 0.954710 -0.065652 3.030090 -3.315511 20.739396 1.638172 -1.429435 -18.646993 5.603009 -0.137467 -5.314870 -1.403001 3.265281 16.479013 0.000000 0.000000 0.000000 -4.883689 1.678554 -21.146795 -10.471832 -0.118142 -8.422701 3.683111 -2.783441 22.753589 0.000000 0.000000 0.000000 5.354402 -1.086965 7.563437 3.050738 -1.138529 -3.953231 -13.143295 -0.025376 2.500164 16.857043 -8.656092 -15.366044 0.000000 0.000000 0.000000 11.624787 -37.001555 10.562141 9.332843 -45.592987 -5.929200 25.376892 -20.221020 -3.583841 0.000000 0.000000 0.000000 -5.654238 22.157356 7.491217 13.677174 55.262816 3.022823 -30.090957 32.417712 -6.847343 0.000000 0.000000 0.000000 
0.015561 0.954399 -0.065741 3.070770 -3.180438 20.634721 1.448505 -1.445542 -18.536353 5.860152 -0.146999 -5.362381 -1.477365 3.153815 16.404289 0.000000 0.000000 0.000000 -4.833707 1.650538 -20.750013 -10.070348 -0.063117 -7.925998 2.711277 -3.505580 20.447835 0.000000 0.000000 0.000000 5.408831 -1.033735 6.867671 2.721665 -1.019081 -3.674119 -13.369886 0.441352 2.328764 17.502109 -8.714683 -16.446575 0.000000 0.000000 0.000000 10.447108 -36.335652 10.642814 7.884387 -46.223606 -5.609730 25.329728 -22.496861 -4.029614 0.000000 0.000000 0.000000 -5.711598 21.365549 7.223708 15.188480 54.683641 3.772041 -29.363790 33.898814 -6.961922 0.000000 0.000000 0.000000 
0.015683 0.954362 -0.066018 3.298964 -2.732225 20.437400 1.361110 -1.447388 -18.255908 5.625907 -0.105291 -5.674808 -1.751094 2.822991 16.452746 0.000000 0.000000 0.000000 -5.008004 1.583310 -20.305817 -9.708020 -0.010413 -7.450917 1.794632 -4.360255 18.772034 0.000000 0.000000 0.000000 5.629896 -1.018073 6.364060 2.110615 -0.745832 -4.300976 -13.398400 0.788520 2.846548 18.105618 -8.756350 -17.633787 0.000000 0.000000 0.000000 8.289179 -35.848208 10.977755 6.024710 -46.150174 -5.027416 25.117944 -26.331912 -4.741898 0.000000 0.000000 0.000000 -5.619304 20.582712 6.965147 16.723821 53.842066 4.409303 -28.151844 35.688532 -6.984184 0.000000 0.000000 0.000000 
